{
	"asset":{
		"generator":"Khronos glTF Blender I/O v4.2.57",
		"version":"2.0"
	},
	"scene":1,
	"scenes":[
		{
			"name":"Scene"
		},
		{
			"name":"Scene.001",
			"nodes":[
				0
			]
		}
	],
	"nodes":[
		{
			"mesh":0,
			"name":"Cube.004"
		}
	],
	"meshes":[
		{
			"name":"Cube.017",
			"primitives":[
				{
					"attributes":{
						"POSITION":0,
						"NORMAL":1,
						"TEXCOORD_0":2
					},
					"indices":3
				}
			]
		}
	],
	"accessors":[
		{
			"bufferView":0,
			"componentType":5126,
			"count":199,
			"max":[
				0.015078405849635601,
				0.015078405849635601,
				0.015926524996757507
			],
			"min":[
				-0.015078405849635601,
				-0.015078405849635601,
				-0.015926524996757507
			],
			"type":"VEC3"
		},
		{
			"bufferView":1,
			"componentType":5126,
			"count":199,
			"type":"VEC3"
		},
		{
			"bufferView":2,
			"componentType":5126,
			"count":199,
			"type":"VEC2"
		},
		{
			"bufferView":3,
			"componentType":5123,
			"count":900,
			"type":"SCALAR"
		}
	],
	"bufferViews":[
		{
			"buffer":0,
			"byteLength":2388,
			"byteOffset":0,
			"target":34962
		},
		{
			"buffer":0,
			"byteLength":2388,
			"byteOffset":2388,
			"target":34962
		},
		{
			"buffer":0,
			"byteLength":1592,
			"byteOffset":4776,
			"target":34962
		},
		{
			"buffer":0,
			"byteLength":1800,
			"byteOffset":6368,
			"target":34963
		}
	],
	"buffers":[
		{
			"byteLength":8168,
			"uri":"cube.bin"
		}
	]
}
