{
	"asset":{
		"generator":"Khronos glTF Blender I/O v4.2.57",
		"version":"2.0"
	},
	"extensionsUsed":[
		"KHR_materials_emissive_strength"
	],
	"scene":1,
	"scenes":[
		{
			"name":"Scene"
		},
		{
			"name":"Scene.001",
			"nodes":[
				0
			]
		}
	],
	"nodes":[
		{
			"mesh":0,
			"name":"Cylinder.004"
		}
	],
	"materials":[
		{
			"doubleSided":true,
			"name":"HAJIKI_Body",
			"pbrMetallicRoughness":{
				"baseColorFactor":[
					0.800000011920929,
					0.800000011920929,
					0.800000011920929,
					1
				],
				"metallicFactor":0,
				"roughnessFactor":0.5
			}
		},
		{
			"doubleSided":true,
			"emissiveFactor":[
				0,
				1,
				1
			],
			"extensions":{
				"KHR_materials_emissive_strength":{
					"emissiveStrength":47
				}
			},
			"name":"HAJIKI_Emmisive",
			"pbrMetallicRoughness":{
				"baseColorFactor":[
					0,
					0,
					0,
					1
				],
				"metallicFactor":0,
				"roughnessFactor":0.5
			}
		}
	],
	"meshes":[
		{
			"name":"Cylinder.003",
			"primitives":[
				{
					"attributes":{
						"POSITION":0,
						"NORMAL":1,
						"TEXCOORD_0":2
					},
					"indices":3,
					"material":0
				},
				{
					"attributes":{
						"POSITION":4,
						"NORMAL":5,
						"TEXCOORD_0":6
					},
					"indices":7,
					"material":1
				}
			]
		}
	],
	"accessors":[
		{
			"bufferView":0,
			"componentType":5126,
			"count":860,
			"max":[
				0.019871925935149193,
				0.005160808563232422,
				0.020000120624899864
			],
			"min":[
				-0.02000027894973755,
				-0.005160808563232422,
				-0.020000120624899864
			],
			"type":"VEC3"
		},
		{
			"bufferView":1,
			"componentType":5126,
			"count":860,
			"type":"VEC3"
		},
		{
			"bufferView":2,
			"componentType":5126,
			"count":860,
			"type":"VEC2"
		},
		{
			"bufferView":3,
			"componentType":5123,
			"count":1569,
			"type":"SCALAR"
		},
		{
			"bufferView":4,
			"componentType":5126,
			"count":70,
			"max":[
				0.020000262185931206,
				0.003160598687827587,
				0.017824925482273102
			],
			"min":[
				-0.015162632800638676,
				-0.0029594111256301403,
				-0.016921158879995346
			],
			"type":"VEC3"
		},
		{
			"bufferView":5,
			"componentType":5126,
			"count":70,
			"type":"VEC3"
		},
		{
			"bufferView":6,
			"componentType":5126,
			"count":70,
			"type":"VEC2"
		},
		{
			"bufferView":7,
			"componentType":5123,
			"count":135,
			"type":"SCALAR"
		}
	],
	"bufferViews":[
		{
			"buffer":0,
			"byteLength":10320,
			"byteOffset":0,
			"target":34962
		},
		{
			"buffer":0,
			"byteLength":10320,
			"byteOffset":10320,
			"target":34962
		},
		{
			"buffer":0,
			"byteLength":6880,
			"byteOffset":20640,
			"target":34962
		},
		{
			"buffer":0,
			"byteLength":3138,
			"byteOffset":27520,
			"target":34963
		},
		{
			"buffer":0,
			"byteLength":840,
			"byteOffset":30660,
			"target":34962
		},
		{
			"buffer":0,
			"byteLength":840,
			"byteOffset":31500,
			"target":34962
		},
		{
			"buffer":0,
			"byteLength":560,
			"byteOffset":32340,
			"target":34962
		},
		{
			"buffer":0,
			"byteLength":270,
			"byteOffset":32900,
			"target":34963
		}
	],
	"buffers":[
		{
			"byteLength":33172,
			"uri":"line.bin"
		}
	]
}
